<svg width="80" height="80" viewBox="0 0 80 80" fill="none" xmlns="http://www.w3.org/2000/svg">
<g clip-path="url(#clip0)">
<path fill-rule="evenodd" clip-rule="evenodd" d="M28.028 38.636C25 35.216 20.9627 33.3333 16.6574 33.3333C12.352 33.3333 8.31469 35.216 5.28803 38.636C-0.861308 45.584 -0.861308 56.8866 5.28803 63.8346L16.6574 76.6786L28.0267 63.8346C34.1774 56.8866 34.1774 45.584 28.028 38.636ZM26.0307 62.0666L16.6587 72.6546L7.28536 62.0666C1.99736 56.0946 1.99736 46.376 7.28536 40.404C9.79869 37.564 13.128 36 16.6574 36C20.1867 36 23.5174 37.564 26.0294 40.404C31.3174 46.376 31.3174 56.0933 26.0307 62.0666Z" fill="#ECB84C"/>
<path fill-rule="evenodd" clip-rule="evenodd" d="M64.996 32.676L73.6147 22.9613C78.252 17.7347 78.252 9.23333 73.6147 4.00667C71.3213 1.42267 68.26 0 64.9947 0C61.7307 0 58.6693 1.42267 56.376 4.00667C51.7387 9.23333 51.7387 17.7347 56.376 22.9613L64.996 32.676ZM58.3707 5.77733C60.1507 3.77067 62.5027 2.66667 64.9947 2.66667C67.488 2.66667 69.84 3.77067 71.62 5.77733C75.3907 10.0267 75.3907 16.9413 71.62 21.1907L64.996 28.6587L58.3707 21.1907C54.6 16.9413 54.6 10.0267 58.3707 5.77733Z" fill="#ECB84C"/>
<path fill-rule="evenodd" clip-rule="evenodd" d="M70.1386 72.6893C69.42 72.528 68.7066 72.9787 68.5453 73.6973C68.392 74.3773 68.0946 75.0027 67.6613 75.5533C67.2066 76.132 67.3053 76.9707 67.8853 77.4253C68.1306 77.6173 68.42 77.7107 68.708 77.7107C69.104 77.7107 69.4946 77.536 69.7573 77.2013C70.4293 76.348 70.9093 75.34 71.1466 74.284C71.308 73.564 70.8573 72.8507 70.1386 72.6893Z" fill="#ECB84C"/>
<path fill-rule="evenodd" clip-rule="evenodd" d="M42.66 41.3333C42.0827 41.332 41.5214 41.2293 40.9907 41.0267C40.308 40.7667 39.5334 41.1093 39.2694 41.7973C39.008 42.4853 39.3534 43.256 40.04 43.5187C40.8747 43.836 41.7534 43.9987 42.6574 44H43.1334C43.8707 44 44.4667 43.404 44.4667 42.6667C44.4667 41.9293 43.8707 41.3333 43.1334 41.3333H42.66Z" fill="#ECB84C"/>
<path fill-rule="evenodd" clip-rule="evenodd" d="M39.4947 32.9013C39.736 32.9013 39.9787 32.836 40.1987 32.7C40.7893 32.332 41.4427 32.1067 42.1373 32.0293C42.8693 31.948 43.3973 31.2893 43.3173 30.5573C43.2373 29.8253 42.5827 29.3027 41.8453 29.3773C40.7493 29.4987 39.72 29.8533 38.7867 30.436C38.1613 30.8253 37.972 31.648 38.3613 32.2733C38.6147 32.6787 39.0493 32.9013 39.4947 32.9013Z" fill="#ECB84C"/>
<path fill-rule="evenodd" clip-rule="evenodd" d="M24.0853 77.3333H21.4187C20.6813 77.3333 20.0853 77.9293 20.0853 78.6666C20.0853 79.404 20.6813 80 21.4187 80H24.0853C24.8227 80 25.4187 79.404 25.4187 78.6666C25.4187 77.9293 24.8213 77.3333 24.0853 77.3333Z" fill="#ECB84C"/>
<path fill-rule="evenodd" clip-rule="evenodd" d="M47.9907 53.3333C47.876 53.3333 47.7627 53.336 47.6493 53.3413C46.9133 53.3706 46.3427 53.992 46.372 54.728C46.4 55.4453 46.992 56.0066 47.7027 56.0066C47.7213 56.0066 47.74 56.0066 47.7587 56.0053L50.3707 56C51.108 56 51.704 55.404 51.704 54.6666C51.704 53.9293 51.108 53.3333 50.3707 53.3333H47.9907Z" fill="#ECB84C"/>
<path fill-rule="evenodd" clip-rule="evenodd" d="M47.324 32H49.9907C50.728 32 51.324 31.404 51.324 30.6666C51.324 29.9293 50.728 29.3333 49.9907 29.3333H47.324C46.5867 29.3333 45.9907 29.9293 45.9907 30.6666C45.9907 31.404 46.5867 32 47.324 32Z" fill="#ECB84C"/>
<path fill-rule="evenodd" clip-rule="evenodd" d="M63.704 53.3333C62.9667 53.3333 62.3707 53.9293 62.3707 54.6666C62.3707 55.404 62.9667 56 63.704 56H66.3707C67.108 56 67.704 55.404 67.704 54.6666C67.704 53.9293 67.108 53.3333 66.3707 53.3333H63.704Z" fill="#ECB84C"/>
<path fill-rule="evenodd" clip-rule="evenodd" d="M68.468 42.6666C68.468 41.9293 67.872 41.3333 67.1346 41.3333H64.468C63.7306 41.3333 63.1346 41.9293 63.1346 42.6666C63.1346 43.404 63.7306 44 64.468 44H67.1346C67.8706 44 68.468 43.404 68.468 42.6666Z" fill="#ECB84C"/>
<path fill-rule="evenodd" clip-rule="evenodd" d="M55.704 56H58.3707C59.108 56 59.704 55.404 59.704 54.6666C59.704 53.9293 59.108 53.3333 58.3707 53.3333H55.704C54.9667 53.3333 54.3707 53.9293 54.3707 54.6666C54.3707 55.404 54.968 56 55.704 56Z" fill="#ECB84C"/>
<path fill-rule="evenodd" clip-rule="evenodd" d="M57.9907 32C58.728 32 59.324 31.404 59.324 30.6666C59.324 29.9293 58.728 29.3333 57.9907 29.3333H55.324C54.5867 29.3333 53.9907 29.9293 53.9907 30.6666C53.9907 31.404 54.5867 32 55.324 32H57.9907Z" fill="#ECB84C"/>
<path fill-rule="evenodd" clip-rule="evenodd" d="M48.468 41.3333C47.7306 41.3333 47.1346 41.9293 47.1346 42.6666C47.1346 43.404 47.7306 44 48.468 44H51.1346C51.872 44 52.468 43.404 52.468 42.6666C52.468 41.9293 51.872 41.3333 51.1346 41.3333H48.468Z" fill="#ECB84C"/>
<path fill-rule="evenodd" clip-rule="evenodd" d="M60.468 42.6666C60.468 41.9293 59.872 41.3333 59.1346 41.3333H56.468C55.7306 41.3333 55.1346 41.9293 55.1346 42.6666C55.1346 43.404 55.7306 44 56.468 44H59.1346C59.8706 44 60.468 43.404 60.468 42.6666Z" fill="#ECB84C"/>
<path fill-rule="evenodd" clip-rule="evenodd" d="M79.2347 47.5093C79.1173 46.7813 78.4307 46.284 77.7067 46.404C76.9787 46.52 76.484 47.2053 76.6013 47.932C76.6387 48.1693 76.66 48.4106 76.6573 48.668C76.6573 49.116 76.5933 49.5586 76.468 49.9853C76.2613 50.692 76.6653 51.4333 77.3733 51.64C77.4987 51.676 77.624 51.6933 77.748 51.6933C78.3253 51.6933 78.8573 51.3173 79.028 50.7346C79.224 50.064 79.324 49.3693 79.324 48.6773C79.3267 48.2933 79.2973 47.9 79.2347 47.5093Z" fill="#ECB84C"/>
<path fill-rule="evenodd" clip-rule="evenodd" d="M56.0853 77.3333H53.4187C52.6813 77.3333 52.0853 77.9293 52.0853 78.6666C52.0853 79.404 52.6813 80 53.4187 80H56.0853C56.8227 80 57.4187 79.404 57.4187 78.6666C57.4187 77.9293 56.8213 77.3333 56.0853 77.3333Z" fill="#ECB84C"/>
<path fill-rule="evenodd" clip-rule="evenodd" d="M48.0853 77.3333H45.4187C44.6813 77.3333 44.0853 77.9293 44.0853 78.6666C44.0853 79.404 44.6813 80 45.4187 80H48.0853C48.8227 80 49.4187 79.404 49.4187 78.6666C49.4187 77.9293 48.8213 77.3333 48.0853 77.3333Z" fill="#ECB84C"/>
<path fill-rule="evenodd" clip-rule="evenodd" d="M62.7533 66.6666C62.7533 65.9293 62.1573 65.3333 61.42 65.3333H58.7533C58.016 65.3333 57.42 65.9293 57.42 66.6666C57.42 67.404 58.016 68 58.7533 68H61.42C62.156 68 62.7533 67.404 62.7533 66.6666Z" fill="#ECB84C"/>
<path fill-rule="evenodd" clip-rule="evenodd" d="M54.7533 66.6666C54.7533 65.9293 54.1573 65.3333 53.42 65.3333H50.7533C50.016 65.3333 49.42 65.9293 49.42 66.6666C49.42 67.404 50.016 68 50.7533 68H53.42C54.156 68 54.7533 67.404 54.7533 66.6666Z" fill="#ECB84C"/>
<path fill-rule="evenodd" clip-rule="evenodd" d="M63.9907 77.3333H61.4173C60.68 77.3333 60.084 77.9293 60.084 78.6666C60.084 79.404 60.68 80 61.4173 80L64.0453 79.9986L64.084 78.6653V79.9986C64.8213 79.9986 65.3707 79.4026 65.3707 78.6653C65.3707 77.9293 64.728 77.3333 63.9907 77.3333Z" fill="#ECB84C"/>
<path fill-rule="evenodd" clip-rule="evenodd" d="M68.708 70.292C68.996 70.292 69.288 70.1987 69.5307 70.0067C70.1107 69.5507 70.2093 68.712 69.7547 68.1347C69.084 67.2827 68.2187 66.5787 67.2493 66.0973C66.5867 65.768 65.7893 66.0387 65.4613 66.6973C65.1333 67.3573 65.4027 68.1573 66.0613 68.4853C66.6787 68.7907 67.2307 69.24 67.6573 69.784C67.9213 70.1173 68.312 70.292 68.708 70.292Z" fill="#ECB84C"/>
<path fill-rule="evenodd" clip-rule="evenodd" d="M73.7933 52.972C73.2213 53.212 72.616 53.3333 71.9907 53.3333H71.704C70.9667 53.3333 70.3707 53.9293 70.3707 54.6666C70.3707 55.404 70.9667 56 71.704 56H71.9907C72.972 56 73.9253 55.808 74.824 55.4306C75.504 55.1453 75.8227 54.364 75.5373 53.6853C75.2533 53.0066 74.4667 52.6866 73.7933 52.972Z" fill="#ECB84C"/>
<path fill-rule="evenodd" clip-rule="evenodd" d="M37.372 39.8066C38.0706 39.576 38.452 38.8226 38.2226 38.1226C38.0693 37.6546 37.9906 37.1653 37.9906 36.672C37.992 36.4706 38.004 36.2693 38.028 36.0733C38.12 35.3426 37.6026 34.6746 36.872 34.584C36.1186 34.5 35.4733 35.012 35.3826 35.74C35.3453 36.0413 35.3253 36.348 35.324 36.6653C35.324 37.4493 35.4466 38.22 35.688 38.956C35.8733 39.5173 36.3946 39.8733 36.9546 39.8733C37.0933 39.8733 37.2346 39.8533 37.372 39.8066Z" fill="#ECB84C"/>
<path fill-rule="evenodd" clip-rule="evenodd" d="M32.0853 77.3333H29.4187C28.6813 77.3333 28.0853 77.9293 28.0853 78.6666C28.0853 79.404 28.6813 80 29.4187 80H32.0853C32.8227 80 33.4187 79.404 33.4187 78.6666C33.4187 77.9293 32.8213 77.3333 32.0853 77.3333Z" fill="#ECB84C"/>
<path fill-rule="evenodd" clip-rule="evenodd" d="M45.496 67.4586C46.0027 67.4586 46.4854 67.1693 46.7094 66.68C47.0147 66.0093 46.7214 65.2186 46.052 64.9133C45.4267 64.6266 44.86 64.196 44.4147 63.6653C43.94 63.1013 43.1 63.028 42.536 63.5026C41.972 63.976 41.8987 64.8173 42.3734 65.3813C43.072 66.212 43.96 66.8893 44.9427 67.3373C45.1227 67.4186 45.3107 67.4586 45.496 67.4586Z" fill="#ECB84C"/>
<path fill-rule="evenodd" clip-rule="evenodd" d="M75.6613 42.3174C74.7093 41.7654 73.6693 41.4414 72.572 41.3547C71.84 41.3014 71.196 41.844 71.1386 42.58C71.0813 43.3147 71.6293 43.956 72.364 44.0134C73.06 44.068 73.72 44.2734 74.324 44.624C74.5346 44.7467 74.7653 44.804 74.992 44.804C75.452 44.804 75.9 44.5654 76.1466 44.14C76.516 43.504 76.2986 42.688 75.6613 42.3174Z" fill="#ECB84C"/>
<path fill-rule="evenodd" clip-rule="evenodd" d="M40.0853 77.3333H37.4187C36.6813 77.3333 36.0853 77.9293 36.0853 78.6666C36.0853 79.404 36.6813 80 37.4187 80H40.0853C40.8227 80 41.4187 79.404 41.4187 78.6666C41.4187 77.9293 40.8213 77.3333 40.0853 77.3333Z" fill="#ECB84C"/>
<path fill-rule="evenodd" clip-rule="evenodd" d="M43.4067 59.7853C43.5387 59.1 43.816 58.4666 44.232 57.9013C44.668 57.3093 44.5414 56.4746 43.948 56.0373C43.3547 55.6026 42.5214 55.728 42.084 56.3213C41.432 57.2093 40.9947 58.2053 40.7867 59.284C40.648 60.0066 41.1214 60.7053 41.8454 60.8453C41.9294 60.8613 42.0147 60.8693 42.0974 60.8693C42.724 60.8666 43.2827 60.4226 43.4067 59.7853Z" fill="#ECB84C"/>
<path fill-rule="evenodd" clip-rule="evenodd" d="M65.324 20C69.3667 20 72.6573 16.7093 72.6573 12.6666C72.6573 8.62398 69.3667 5.33331 65.324 5.33331C61.2813 5.33331 57.9907 8.62398 57.9907 12.6666C57.9907 16.7093 61.2813 20 65.324 20ZM65.324 7.99998C67.8973 7.99998 69.9907 10.0933 69.9907 12.6666C69.9907 15.24 67.8973 17.3333 65.324 17.3333C62.7507 17.3333 60.6573 15.24 60.6573 12.6666C60.6573 10.0933 62.752 7.99998 65.324 7.99998Z" fill="#ECB84C"/>
<path fill-rule="evenodd" clip-rule="evenodd" d="M16.6573 41.3333C12.2453 41.3333 8.65735 44.9213 8.65735 49.3333C8.65735 53.7453 12.2453 57.3333 16.6573 57.3333C21.0693 57.3333 24.6573 53.7453 24.6573 49.3333C24.6573 44.9213 21.0693 41.3333 16.6573 41.3333ZM16.6573 54.6666C13.716 54.6666 11.324 52.2746 11.324 49.3333C11.324 46.392 13.716 44 16.6573 44C19.5987 44 21.9907 46.392 21.9907 49.3333C21.9907 52.2746 19.5987 54.6666 16.6573 54.6666Z" fill="#ECB84C"/>
</g>
<defs>
<clipPath id="clip0">
<rect width="80" height="80" fill="white"/>
</clipPath>
</defs>
</svg>
