<svg width="94" height="80" viewBox="0 0 94 80" fill="none" xmlns="http://www.w3.org/2000/svg">
<path fill-rule="evenodd" clip-rule="evenodd" d="M86.7624 26.3905C82.2393 21.8755 75.9119 18.6604 68.9458 17.337C68.1052 17.1778 67.2945 17.7334 67.1356 18.5791C66.9768 19.4248 67.5296 20.24 68.3707 20.3998C81.6362 22.9199 90.9011 32.1929 90.9011 42.9498C90.9011 51.8093 84.6306 59.7719 74.5369 63.7303C74.0216 63.9325 73.6524 64.3954 73.5683 64.9453C72.956 68.9453 73.7919 73.0161 75.8345 76.4073C71.3745 75.2092 67.762 71.7667 66.357 67.1019C66.1446 66.3967 65.4682 65.9362 64.74 66.0013C63.6457 66.0969 62.5427 66.1455 61.4616 66.1455C51.8221 66.1455 42.7739 62.4052 37.2577 56.1401C36.6906 55.4957 35.7113 55.4359 35.0705 56.0065C34.4298 56.5771 34.3703 57.562 34.9376 58.2064C41.033 65.1292 50.9486 69.2624 61.4616 69.2624C62.2338 69.2624 63.016 69.2395 63.7987 69.1942C64.922 72.1081 66.8543 74.7024 69.3297 76.5924C72.2375 78.8127 75.7033 79.9861 79.3519 79.9861C79.9773 79.9861 80.5413 79.6079 80.782 79.0273C81.0226 78.4468 80.8927 77.7777 80.4527 77.3307C77.5955 74.4297 76.1607 70.3541 76.5263 66.2826C81.53 64.1698 85.7726 61.0394 88.8381 57.1896C92.215 52.9488 94 48.025 94 42.9498C94 36.9303 91.4298 31.0494 86.7624 26.3905Z" fill="#ECB84C"/>
<path fill-rule="evenodd" clip-rule="evenodd" d="M65.0769 26.3265C65.0769 19.2293 61.6454 12.5798 55.4143 7.60252C49.2882 2.70902 41.1639 0.0141602 32.5385 0.0141602C23.9124 0.0141602 15.7879 2.70902 9.66217 7.60252C3.43131 12.5798 0 19.2293 0 26.3265C0 31.4016 1.78497 36.3256 5.16174 40.5663C8.22717 44.4158 12.47 47.5464 17.4735 49.6593C17.8391 53.7307 16.4043 57.8064 13.5472 60.7074C13.1071 61.1541 12.9772 61.8234 13.2178 62.404C13.4585 62.9845 14.0227 63.3627 14.6479 63.3627C18.2967 63.3627 21.7623 62.1893 24.6701 59.9691C27.1455 58.0792 29.0778 55.4847 30.2011 52.5708C30.9838 52.6161 31.766 52.639 32.5383 52.639C41.1639 52.639 49.2882 49.9441 55.4141 45.0506C61.6454 40.0732 65.0769 33.4236 65.0769 26.3265ZM29.26 49.3777C28.5295 49.3135 27.8554 49.7729 27.643 50.4784C26.238 55.1429 22.6257 58.5854 18.1656 59.7835C20.2081 56.3925 21.044 52.3215 20.4317 48.3215C20.3476 47.7717 19.9784 47.3087 19.4632 47.1065C9.36942 43.1485 3.0989 35.1859 3.0989 26.3265C3.0989 13.5364 16.3054 3.13104 32.5385 3.13104C48.7715 3.13104 61.978 13.5364 61.978 26.3265C61.978 39.1165 48.7715 49.5219 32.5385 49.5219C31.4574 49.5219 30.3544 49.4735 29.26 49.3777Z" fill="#ECB84C"/>
</svg>
